<svg width="71" height="50" viewBox="0 0 71 50" fill="none" xmlns="http://www.w3.org/2000/svg">
<path d="M69.5556 7.86114C69.1535 6.35218 68.3645 4.9759 67.2676 3.86998C66.1706 2.76407 64.8042 1.9673 63.305 1.5594C57.7496 0.0250049 35.5246 2.71071e-05 35.5246 2.71071e-05C35.5246 2.71071e-05 13.3031 -0.0249522 7.74418 1.44165C6.24687 1.87037 4.88427 2.67907 3.78718 3.79011C2.6901 4.90115 1.89538 6.27722 1.47931 7.7862C0.0141958 13.3743 5.19759e-06 24.9643 5.19759e-06 24.9643C5.19759e-06 24.9643 -0.0141847 36.6115 1.44029 42.1424C2.25621 45.2005 4.65077 47.6163 7.69451 48.4406C13.3066 49.975 35.4714 50 35.4714 50C35.4714 50 57.6964 50.025 63.2518 48.5619C64.7498 48.1512 66.1156 47.355 67.2147 46.2519C68.3139 45.1488 69.1084 43.7768 69.5202 42.2709C70.9888 36.6864 70.9995 25.0999 70.9995 25.0999C70.9995 25.0999 71.0704 13.4492 69.5556 7.86114ZM28.4154 35.7015L28.4331 14.2913L46.9049 25.0143L28.4154 35.7015Z" fill="black"/>
</svg>
