<svg width="67" height="67" viewBox="0 0 67 67" fill="none" xmlns="http://www.w3.org/2000/svg">
<path d="M4.69 4.69C8.87447e-07 9.42467 0 16.9957 0 32.16V34.84C0 49.982 8.87447e-07 57.553 4.69 62.31C9.42467 67 16.9957 67 32.16 67H34.84C49.982 67 57.553 67 62.31 62.31C67 57.5753 67 50.0043 67 34.84V32.16C67 17.018 67 9.447 62.31 4.69C57.5753 8.87447e-07 50.0043 0 34.84 0H32.16C17.018 0 9.447 8.87447e-07 4.69 4.69ZM11.3007 20.3903H18.9833C19.229 33.165 24.857 38.5697 29.3237 39.6863V20.3903H36.5373V31.4007C40.937 30.9317 45.5823 25.9067 47.1457 20.368H54.337C53.7502 23.2349 52.5787 25.9501 50.8957 28.344C49.2126 30.738 47.0541 32.7592 44.555 34.2817C47.3446 35.6696 49.8081 37.6333 51.783 40.0432C53.7579 42.4531 55.1993 45.2544 56.012 48.2623H48.0837C46.3863 42.9693 42.143 38.86 36.5373 38.3017V48.2623H35.644C20.368 48.2623 11.658 37.8103 11.3007 20.3903Z" fill="black"/>
</svg>
